<svg width="405" height="133" viewBox="0 0 405 133" fill="none" xmlns="http://www.w3.org/2000/svg">
<g clip-path="url(#clip0_387_1609)">
<path d="M330.23 59.32C332.03 61.04 333.23 61.43 335.11 63.07C336.68 64.44 338.35 65.9 338.97 67.89C339.59 69.88 338.58 72.53 336.51 72.82C334.98 73.04 333.6 71.96 332.44 70.94L317.04 57.51C315.99 56.7031 315.09 55.7182 314.38 54.6C314.027 54.038 313.822 53.3958 313.783 52.7333C313.745 52.0707 313.875 51.4091 314.16 50.81C314.757 49.9235 315.597 49.2289 316.58 48.81C320.64 46.69 325.16 52.32 327.78 54.96C329.11 56.39 328.85 58.02 330.23 59.32Z" fill="#B3E718"/>
<path d="M363.16 81.88C366.16 84.98 374.23 92.45 377.27 95.54C378.455 96.6003 379.423 97.8807 380.12 99.31C380.78 101.173 380.78 103.207 380.12 105.07C379.458 107.365 378.073 109.386 376.17 110.83C375.217 111.537 374.119 112.023 372.955 112.253C371.791 112.483 370.59 112.451 369.44 112.16C367.632 111.516 365.982 110.493 364.6 109.16C359.3 104.633 354.16 99.92 349.18 95.02C352.9 91.39 359.45 85.49 363.16 81.88ZM371.56 103.51C369.62 100.777 367.547 98.1467 365.34 95.62C364.34 94.43 363.12 92.62 361.8 91.79C361.339 91.5646 360.841 91.4223 360.33 91.37C359.764 91.3439 359.219 91.1527 358.76 90.82C362.58 95.49 366.5 100.23 371.56 103.51Z" fill="#B3E718"/>
<path d="M301.2 72.8501C301.2 72.8501 312.76 68.92 329.41 78.55C329.41 78.55 309.3 92.7401 310.61 102.73L301.2 96.6001V72.8501Z" fill="#B3E718"/>
<path d="M393.12 96.07V72.07C387.69 70.3 369.3 80.14 369.3 80.14C369.3 80.14 386.81 96.08 385.94 101.34L393.12 96.07Z" fill="#B3E718"/>
<path d="M347.05 98.53L363.69 114.29L347.05 120.07L332.51 112.39C332.51 112.39 346.52 100.1 347.05 98.53Z" fill="#B3E718"/>
<path d="M321.4 93.83L349.4 66.16C349.915 65.7115 350.348 65.1769 350.68 64.58C351.35 63.2 350.89 61.58 350.63 60.04C350.211 57.2927 350.523 54.4833 351.536 51.8953C352.549 49.3073 354.227 47.0324 356.4 45.3C361.78 41.12 372.66 40.18 376.08 47.42C373.591 47.415 371.126 47.9079 368.83 48.87C367.684 49.3573 366.654 50.0828 365.809 50.9983C364.965 51.9137 364.324 52.9982 363.93 54.18C363.568 55.3714 363.599 56.6478 364.019 57.8202C364.439 58.9926 365.224 59.9988 366.26 60.69C367.832 61.4586 369.613 61.6905 371.33 61.35C374.952 60.8821 378.412 59.5664 381.43 57.51C381.897 59.0022 382.04 60.5767 381.851 62.1286C381.661 63.6805 381.143 65.1742 380.33 66.51C378.68 69.1694 376.377 71.3622 373.64 72.88C371.286 74.4265 368.504 75.1895 365.69 75.06C364.926 74.9106 364.147 74.8602 363.37 74.91C362.149 75.2327 361.06 75.9326 360.26 76.91L332.26 104.38C329.54 107.05 326.32 109.92 322.51 109.67C320.795 109.502 319.201 108.713 318.028 107.451C316.855 106.19 316.183 104.542 316.14 102.82C316.16 99.23 318.86 96.33 321.4 93.83ZM326.46 104.62C327.162 104.62 327.849 104.412 328.432 104.022C329.016 103.632 329.471 103.077 329.74 102.429C330.009 101.78 330.079 101.066 329.942 100.377C329.805 99.6888 329.467 99.0563 328.97 98.5598C328.474 98.0633 327.841 97.7252 327.153 97.5882C326.464 97.4513 325.75 97.5215 325.102 97.7902C324.453 98.0589 323.898 98.5139 323.508 99.0977C323.118 99.6815 322.91 100.368 322.91 101.07C322.909 101.537 323 101.999 323.178 102.43C323.356 102.861 323.617 103.253 323.947 103.583C324.277 103.913 324.669 104.175 325.1 104.352C325.531 104.53 325.994 104.621 326.46 104.62Z" fill="#1C4B41"/>
<path d="M344.24 79.26H342.49L326.3 94.85C326.3 94.85 328.3 93.62 329 94.85C329.7 96.08 344.24 79.26 344.24 79.26Z" fill="#B3E718"/>
<path d="M290.81 47.2C291.51 43.87 295.72 42.06 295.72 42.06C295.72 42.06 340.04 15.49 344.24 13.21C348.44 10.93 352.83 14.09 352.83 14.09C352.83 14.09 395.75 40.36 400.13 42.09C401.396 42.6034 402.493 43.4608 403.297 44.5653C404.101 45.6699 404.58 46.9774 404.68 48.34V97.56C404.68 101.29 400.68 104.65 400.68 104.65C400.68 104.65 359.68 129.04 353.68 131.65C349.92 133.179 345.711 133.179 341.95 131.65L293.79 103.51C291.11 101.95 290.79 97.51 290.79 97.51C290.79 97.51 290.11 50.53 290.81 47.2ZM302.2 96.6L310.61 102.73C310.61 102.73 312.48 121.12 332.51 112.42L347.05 120.07L363.69 114.29C363.69 114.29 382.26 124.45 385.94 101.29L393.12 96.03V51.03C393.12 51.03 350.73 21.78 348.12 22.3C345.51 22.82 304.67 47.88 302.22 51.21C302.2 51.23 300.99 95.72 302.2 96.6Z" fill="#1C4B41"/>
<path d="M284.07 8.17004C284.07 8.17004 282.6 14.38 281.15 15.83C279.7 17.28 273.49 18.75 273.49 18.75C273.49 18.75 279.7 20.22 281.15 21.67C282.6 23.12 284.07 29.33 284.07 29.33C284.07 29.33 285.55 23.12 286.99 21.67C288.43 20.22 294.65 18.75 294.65 18.75C294.65 18.75 288.44 17.27 286.99 15.83C285.54 14.39 284.07 8.17004 284.07 8.17004Z" fill="#B3E718"/>
<path d="M301.2 18.75C301.2 18.75 300.26 22.75 299.33 23.65C298.4 24.55 294.43 25.52 294.43 25.52C294.43 25.52 298.43 26.46 299.33 27.39C300.23 28.32 301.2 32.28 301.2 32.28C301.2 32.28 302.14 28.28 303.07 27.39C304 26.5 307.97 25.52 307.97 25.52C307.97 25.52 303.97 24.52 303.07 23.65C302.17 22.78 301.2 18.75 301.2 18.75Z" fill="#B3E718"/>
<path d="M267.081 49.8599C267.264 50.1605 267.358 50.5076 267.35 50.8599C267.35 54.3999 267.15 57.94 267.15 61.48V98.8799C267.15 103.2 267.15 107.52 267.15 111.88C267.15 113.55 250.48 113.88 248.85 113.96C247.76 114.04 248.611 105.15 248.611 104.39C248.611 101.057 248.611 97.7233 248.611 94.3899C248.611 87.8899 248.611 81.3899 248.611 74.8799C248.611 67.7999 248.611 60.73 248.611 53.65C248.611 51.08 251.981 50.1599 254.011 49.3599C256.041 48.5599 265.361 47.1399 267.081 49.8599Z" fill="#1C4B41"/>
<path d="M267.08 23.88C267.74 26.22 267.15 29.45 267.15 31.88C267.15 32.76 266.7 40.88 267.15 41.02C265.248 40.549 263.269 40.4809 261.34 40.82C258.153 41.1782 255.015 41.8824 251.98 42.92C248.98 43.92 245.85 45.92 242.84 46.42C242.836 45.4884 242.936 44.5592 243.14 43.65C243.727 41.1895 244.677 38.8302 245.96 36.65C250.41 29.08 258.56 24.92 267.08 23.88Z" fill="#1C4B41"/>
<path d="M236.44 67.1299C236.59 68.2699 222.66 69.69 221.18 69.89C220.38 69.99 222.46 82.72 222.55 83.89C222.87 87.77 223.55 92.6599 221.98 96.3699C220.18 100.66 215.64 101.51 211.88 99.14C207.28 96.24 207.6 91.7799 207.8 86.9999C207.8 83.4799 208.37 79.7199 207.66 76.2399C207.56 75.7599 198.27 78.3299 197.52 78.5099C196.77 78.6899 197.47 86.1499 197.47 86.8799C197.554 90.4388 196.95 93.9804 195.69 97.3099C193.92 101.66 187.81 101.58 184.81 98.6199C181.2 95.0499 182.9 85.62 182.64 81.08C182.653 80.3912 182.513 79.7081 182.23 79.08C181.23 77.26 178.23 78.2199 176.6 78.3199C174.11 78.4899 171.36 79.15 168.89 78.84V95.64C164.98 99.86 160.4 100.36 155.07 99.4999C157.42 85.7299 152.61 71.81 137.55 68.67C114.06 63.8 102.69 81.03 102.69 81.03C102.69 68.03 102.69 55.03 102.69 42.08C102.69 42.33 86.7499 43.68 85.2899 43.83C85.6099 60.99 85.9432 78.1499 86.2899 95.3099L86.3999 100.94C86.3999 100.94 77.6399 106.94 68.8799 92.8799C65.3999 87.3199 59.3999 83.5799 52.5799 84.5099C46.4599 85.3299 37.5799 89.9899 39.7999 97.4399C41.0599 101.78 42.6399 106.2 45.7399 109.55C45.7978 109.606 45.8423 109.674 45.8699 109.75C45.8699 109.95 45.6799 110.08 45.4999 110.14C40.3899 112.02 33.9199 111.64 28.5899 111.8C5.45986 112.5 17.7199 85.8699 17.7199 85.8699H4.04987C-5.06013 102.69 4.04987 115.75 4.04987 115.75C16.2099 129.75 34.3899 131.15 49.9899 122.26C55.2199 119.26 57.6999 114.67 54.9199 109.04C53.7099 106.6 51.7499 101.8 54.9199 99.8699C54.7699 99.9599 64.3599 110.58 65.4299 111.56C70.4299 116.11 76.2999 117.68 82.9099 117.56C99.1099 117.26 115.31 116.93 131.51 117.4C134.554 117.569 137.607 117.422 140.62 116.96C141.81 116.75 148.28 113.69 148.74 113.9C153.557 116.074 158.839 117.015 164.11 116.64C166.814 116.476 169.459 115.776 171.89 114.58C172.988 113.977 174.026 113.27 174.99 112.47C176.9 110.95 176.11 110.71 178.27 111.65C181.35 112.99 183.43 115.04 186.97 115.56C189.605 115.912 192.283 115.718 194.84 114.99C197.35 114.31 202.06 110.47 204.37 110.99C206.06 111.38 207.65 112.75 209.28 113.37C211.027 114.052 212.822 114.607 214.65 115.03C217.497 115.748 220.46 115.881 223.36 115.42C225.63 114.956 227.764 113.98 229.599 112.566C231.435 111.152 232.923 109.337 233.95 107.26C238.76 98.34 238.5 86.84 237.7 77.02C237.39 73.7 236.93 70.3899 236.44 67.1299ZM100.05 100.73C100.05 100.73 135.05 60.58 139.99 100.73H100.05Z" fill="#1C4B41"/>
</g>
<defs>
<clipPath id="clip0_387_1609">
<rect width="405" height="133" fill="white"/>
</clipPath>
</defs>
</svg>
