<svg width="24" height="24" viewBox="0 0 24 24" fill="none" xmlns="http://www.w3.org/2000/svg">
<path d="M3.75 5.654C3.75 4.611 4.611 3.75 5.654 3.75H18.346C19.389 3.75 20.25 4.611 20.25 5.654V11.424C20.2469 11.9279 20.0452 12.4103 19.6888 12.7665C19.3324 13.1227 18.8499 13.3241 18.346 13.327H5.654C5.14992 13.3241 4.6673 13.1226 4.31086 12.7661C3.95441 12.4097 3.75289 11.9271 3.75 11.423V5.654ZM15.865 11.827V10.269C15.862 10.1628 15.8184 10.0618 15.7433 9.98668C15.6682 9.91156 15.5672 9.86802 15.461 9.865H8.539C8.43298 9.86827 8.33222 9.91192 8.25731 9.98701C8.1824 10.0621 8.13901 10.163 8.136 10.269V11.827H15.865ZM8.538 14.71C8.73691 14.71 8.92768 14.789 9.06833 14.9297C9.20898 15.0703 9.288 15.2611 9.288 15.46C9.288 16.085 9.274 16.95 8.983 17.665C8.82713 18.0727 8.55701 18.4269 8.205 18.685C7.817 18.962 7.345 19.095 6.808 19.095C6.60909 19.095 6.41832 19.016 6.27767 18.8753C6.13702 18.7347 6.058 18.5439 6.058 18.345C6.058 18.1461 6.13702 17.9553 6.27767 17.8147C6.41832 17.674 6.60909 17.595 6.808 17.595C7.091 17.595 7.245 17.528 7.335 17.464C7.429 17.397 7.518 17.287 7.593 17.101C7.758 16.695 7.788 16.117 7.788 15.461C7.788 15.2621 7.86702 15.0713 8.00767 14.9307C8.14832 14.79 8.33909 14.711 8.538 14.711M12 14.711C12.1989 14.711 12.3897 14.79 12.5303 14.9307C12.671 15.0713 12.75 15.2621 12.75 15.461V19.5C12.75 19.6989 12.671 19.8897 12.5303 20.0303C12.3897 20.171 12.1989 20.25 12 20.25C11.8011 20.25 11.6103 20.171 11.4697 20.0303C11.329 19.8897 11.25 19.6989 11.25 19.5V15.461C11.25 15.2621 11.329 15.0713 11.4697 14.9307C11.6103 14.79 11.8011 14.711 12 14.711ZM15.461 14.711C15.6599 14.711 15.8507 14.79 15.9913 14.9307C16.132 15.0713 16.211 15.2621 16.211 15.461C16.211 16.118 16.241 16.696 16.407 17.102C16.482 17.288 16.571 17.398 16.665 17.465C16.755 17.529 16.909 17.596 17.192 17.596C17.3909 17.596 17.5817 17.675 17.7223 17.8157C17.863 17.9563 17.942 18.1471 17.942 18.346C17.942 18.5449 17.863 18.7357 17.7223 18.8763C17.5817 19.017 17.3909 19.096 17.192 19.096C16.655 19.096 16.182 18.963 15.795 18.686C15.443 18.4279 15.1729 18.0737 15.017 17.666C14.727 16.951 14.711 16.086 14.711 15.461C14.711 15.2621 14.79 15.0713 14.9307 14.9307C15.0713 14.79 15.2621 14.711 15.461 14.711Z" fill="#1C4B41"/>
</svg>
