<svg width="14" height="14" viewBox="0 0 14 14" fill="none" xmlns="http://www.w3.org/2000/svg">
<path fill-rule="evenodd" clip-rule="evenodd" d="M13.0566 13.0567C12.8456 13.2677 12.5595 13.3862 12.2611 13.3862C11.9627 13.3862 11.6766 13.2677 11.4656 13.0567L2.24848 3.83957L2.24848 10.6702C2.2382 10.9615 2.11524 11.2375 1.90552 11.4399C1.69579 11.6424 1.41568 11.7555 1.12418 11.7555C0.832683 11.7555 0.552566 11.6424 0.342842 11.4399C0.133118 11.2375 0.010163 10.9615 -0.000119815 10.6702L-0.000119498 1.12428C6.59477e-05 0.826159 0.118578 0.540296 0.329385 0.329489C0.540193 0.118682 0.826054 0.000170206 1.12418 -1.49026e-05L10.6701 -1.60195e-05C10.9614 0.0102668 11.2374 0.133222 11.4398 0.342945C11.6423 0.55267 11.7554 0.832787 11.7554 1.12428C11.7554 1.41578 11.6423 1.6959 11.4398 1.90562C11.2374 2.11535 10.9614 2.2383 10.6701 2.24858H3.83947L13.0566 11.4657C13.2676 11.6767 13.3861 11.9628 13.3861 12.2612C13.3861 12.5596 13.2676 12.8457 13.0566 13.0567Z" fill="#112D27"/>
</svg>
