<svg width="24" height="24" viewBox="0 0 24 24" fill="none" xmlns="http://www.w3.org/2000/svg">
<path fill-rule="evenodd" clip-rule="evenodd" d="M18.3637 18.364C18.1528 18.575 17.8666 18.6935 17.5682 18.6935C17.2699 18.6935 16.9837 18.575 16.7727 18.364L7.55561 9.14689L7.55561 15.9775C7.54533 16.2689 7.42237 16.5448 7.21265 16.7473C7.00292 16.9497 6.72281 17.0629 6.43131 17.0629C6.13981 17.0629 5.8597 16.9497 5.64997 16.7473C5.44025 16.5448 5.31729 16.2689 5.30701 15.9775L5.30701 6.4316C5.30719 6.13347 5.42571 5.84761 5.63651 5.6368C5.84732 5.42599 6.13318 5.30748 6.43131 5.3073L15.9773 5.3073C16.2686 5.31758 16.5445 5.44053 16.747 5.65026C16.9494 5.85998 17.0626 6.1401 17.0626 6.4316C17.0626 6.72309 16.9494 7.00321 16.747 7.21293C16.5445 7.42266 16.2686 7.54561 15.9773 7.5559H9.1466L18.3637 16.773C18.5747 16.984 18.6932 17.2702 18.6932 17.5685C18.6932 17.8669 18.5747 18.153 18.3637 18.364Z" fill="#112D27"/>
</svg>
