<svg width="25" height="21" viewBox="0 0 25 21" fill="none" xmlns="http://www.w3.org/2000/svg">
<path d="M20.0212 20.02H4.60375C3.58167 20.02 2.60146 19.614 1.87874 18.8913C1.15602 18.1685 0.75 17.1883 0.75 16.1663V7.17375C0.749836 6.66756 0.849395 6.1663 1.04299 5.6986C1.23659 5.2309 1.52043 4.80592 1.8783 4.44793C2.23617 4.08994 2.66106 3.80597 3.1287 3.61222C3.59634 3.41847 4.09756 3.31875 4.60375 3.31875H6.3775C6.8875 3.31875 7.3775 3.11625 7.74 2.75375L9.1775 1.315C9.54 0.95375 10.0275 0.75 10.54 0.75H14.085C14.3381 0.749982 14.5887 0.799875 14.8225 0.896825C15.0563 0.993774 15.2687 1.13588 15.4475 1.315L16.885 2.75375C17.2475 3.115 17.7375 3.31875 18.2475 3.31875H20.0212C20.5274 3.31875 21.0287 3.41847 21.4963 3.61222C21.9639 3.80597 22.3888 4.08994 22.7467 4.44793C23.1046 4.80592 23.3884 5.2309 23.582 5.6986C23.7756 6.1663 23.8752 6.66756 23.875 7.17375V16.1663C23.875 17.1883 23.469 18.1685 22.7463 18.8913C22.0235 19.614 21.0433 20.02 20.0212 20.02Z" stroke="#1C4B41" stroke-width="1.5" stroke-linecap="round" stroke-linejoin="round"/>
<path d="M15.9462 14.6612C14.9825 15.6249 13.6755 16.1663 12.3126 16.1663C10.9497 16.1663 9.64264 15.6249 8.67893 14.6612C7.71523 13.6975 7.17383 12.3904 7.17383 11.0275C7.17383 9.66466 7.71523 8.3576 8.67893 7.3939C9.64264 6.4302 10.9497 5.88879 12.3126 5.88879C13.6755 5.88879 14.9825 6.4302 15.9462 7.3939C16.9099 8.3576 17.4513 9.66466 17.4513 11.0275C17.4513 12.3904 16.9099 13.6975 15.9462 14.6612Z" stroke="#1C4B41" stroke-width="1.5" stroke-linecap="round" stroke-linejoin="round"/>
</svg>
