<svg width="24" height="24" viewBox="0 0 24 24" fill="none" xmlns="http://www.w3.org/2000/svg">
<path d="M21.7498 16.6904L17.8153 12.7559L6.74978 1.69045C6.37478 1.31545 5.99978 1.49995 5.62478 1.87795L2.62478 4.87795C2.24978 5.25295 2.43728 5.44045 2.99978 5.62795C3.56228 5.81545 3.74978 6.00295 3.74978 7.50295C3.74978 7.87795 4.87478 8.25295 4.87478 8.25295C5.03275 8.30745 5.17076 8.40803 5.27102 8.54171C5.37128 8.67539 5.42919 8.83604 5.43728 9.00295V9.94045C5.43728 9.94045 5.46353 10.4909 6.74978 11.0654C6.85485 11.1197 6.94439 11.1998 7.00999 11.2982C7.07559 11.3966 7.11509 11.5101 7.12478 11.6279C7.12478 13.1279 7.49978 13.3154 7.49978 13.3154L8.62478 13.8779C8.62478 13.8779 8.99978 14.0654 8.99978 14.2529C8.99978 15.3779 8.99978 15.9404 9.37478 16.1279C9.37478 16.1279 10.8748 16.6934 10.8748 17.0684V18.7559C10.8748 19.1309 11.2498 19.3184 11.6248 19.3184H13.6873V19.5059L16.4998 22.3184C16.5448 22.3649 16.5948 22.4059 16.6498 22.4414C16.732 22.4928 16.8264 22.521 16.9233 22.5233C17.0201 22.5255 17.1158 22.5017 17.2003 22.4542C17.3588 22.3692 17.4993 22.2614 17.6218 22.1309L21.7468 18.0059C21.8469 17.9281 21.9279 17.8285 21.9838 17.7146C22.0396 17.6008 22.0688 17.4757 22.0691 17.3489C22.0693 17.2221 22.0407 17.0969 21.9854 16.9828C21.9301 16.8687 21.8495 16.7687 21.7498 16.6904ZM9.29604 12.5354L8.65478 12.2159C8.63379 12.0207 8.62378 11.8244 8.62478 11.6279C8.62294 11.3517 8.5666 11.0785 8.45901 10.8241C8.35142 10.5697 8.19468 10.339 7.99778 10.1452C7.83025 9.97421 7.63563 9.83204 7.42178 9.72445L6.93728 9.47095V9.00295C6.93741 8.67011 6.86344 8.34141 6.72074 8.04071C6.57804 7.74001 6.3702 7.47484 6.11228 7.26445C5.85537 7.04521 5.55508 6.88267 5.23103 6.78745C5.21926 6.32809 5.12317 5.87482 4.94753 5.4502C4.86937 5.27814 4.76983 5.11662 4.65128 4.96945L6.27728 3.34195L15.8623 12.9284C15.3106 13.4825 14.7717 14.0491 14.246 14.6279C14.246 14.6279 13.6805 15.1904 13.6835 15.5654V17.8154H12.371V17.0654C12.3674 16.6699 12.229 16.2873 11.9788 15.9809C11.8504 15.8228 11.7025 15.6817 11.5385 15.5609C11.2142 15.3303 10.8668 15.1337 10.502 14.9744C10.502 14.8994 10.496 14.8919 10.496 14.2529C10.4928 13.8611 10.3564 13.4821 10.109 13.1782C9.99184 13.0344 9.85732 12.9057 9.70853 12.7949C9.57705 12.6977 9.43783 12.6115 9.29229 12.5369L9.29604 12.5354ZM19.358 18.1394L17.7665 19.7294C17.5533 19.9282 17.2712 20.0364 16.9798 20.0312C16.6883 20.0261 16.4102 19.908 16.2041 19.7019C15.998 19.4958 15.8799 19.2177 15.8748 18.9262C15.8696 18.6348 15.9778 18.3527 16.1765 18.1394L17.7665 16.5487C17.8975 16.4181 18.0586 16.3218 18.2355 16.2682C18.4125 16.2147 18.6 16.2055 18.7814 16.2415C18.9627 16.2775 19.1325 16.3576 19.2755 16.4748C19.4186 16.5919 19.5307 16.7425 19.6018 16.9132C19.687 17.1188 19.7093 17.345 19.6659 17.5633C19.6225 17.7816 19.5154 17.9821 19.358 18.1394Z" fill="#1C4B41"/>
</svg>
