<svg width="40" height="40" viewBox="0 0 40 40" fill="none" xmlns="http://www.w3.org/2000/svg">
<path d="M3.33301 11.6667C3.33301 10.7827 3.6842 9.93481 4.30932 9.30968C4.93444 8.68456 5.78229 8.33337 6.66634 8.33337H33.333C34.2171 8.33337 35.0649 8.68456 35.69 9.30968C36.3152 9.93481 36.6663 10.7827 36.6663 11.6667V28.3334C36.6663 29.2174 36.3152 30.0653 35.69 30.6904C35.0649 31.3155 34.2171 31.6667 33.333 31.6667H6.66634C5.78229 31.6667 4.93444 31.3155 4.30932 30.6904C3.6842 30.0653 3.33301 29.2174 3.33301 28.3334V11.6667Z" stroke="black" stroke-width="2" stroke-linecap="round" stroke-linejoin="round"/>
<path d="M20 25C22.7614 25 25 22.7614 25 20C25 17.2386 22.7614 15 20 15C17.2386 15 15 17.2386 15 20C15 22.7614 17.2386 25 20 25Z" stroke="black" stroke-width="2" stroke-linecap="round" stroke-linejoin="round"/>
<path d="M3.33301 15C5.10112 15 6.79681 14.2977 8.04705 13.0474C9.2973 11.7972 9.99967 10.1015 9.99967 8.33337M29.9997 31.6667C29.9997 29.8986 30.7021 28.2029 31.9523 26.9527C33.2025 25.7024 34.8982 25 36.6663 25" stroke="black" stroke-width="2" stroke-linecap="round" stroke-linejoin="round"/>
</svg>
