<svg width="24" height="24" viewBox="0 0 24 24" fill="none" xmlns="http://www.w3.org/2000/svg">
<path d="M21.2501 12C21.2517 13.2145 21.0136 14.4173 20.5494 15.5396C20.0852 16.6618 19.4041 17.6815 18.5451 18.54C17.6858 19.3996 16.6654 20.0814 15.5423 20.5464C14.4193 21.0114 13.2156 21.2505 12.0001 21.25C10.6919 21.2529 9.39817 20.9767 8.20515 20.44L4.33815 21.012C4.14615 21.0433 3.9494 21.0274 3.76498 20.9654C3.58057 20.9034 3.41407 20.7974 3.27995 20.6565C3.14583 20.5155 3.04814 20.344 2.99537 20.1568C2.9426 19.9695 2.93635 19.7722 2.97715 19.582L3.51415 15.659C3.00334 14.5072 2.74293 13.26 2.75015 12C2.74859 10.7855 2.98673 9.5827 3.45091 8.46044C3.91508 7.33817 4.59618 6.31855 5.45515 5.46C6.31453 4.60042 7.33491 3.91864 8.45795 3.45364C9.58098 2.98864 10.7846 2.74954 12.0001 2.75C14.4548 2.75016 16.8089 3.72491 18.5451 5.46C19.4037 6.31888 20.0845 7.33856 20.5486 8.46075C21.0128 9.58294 21.2512 10.7856 21.2501 12Z" stroke="#112D27" stroke-width="2" stroke-linecap="round" stroke-linejoin="round"/>
<path d="M12.4315 12.4312C12.317 12.5457 12.1617 12.61 11.9998 12.61C11.8379 12.61 11.6826 12.5457 11.5681 12.4312C11.4536 12.3167 11.3893 12.1614 11.3893 11.9995C11.3893 11.8376 11.4536 11.6823 11.5681 11.5678C11.6826 11.4533 11.8379 11.389 11.9998 11.389C12.1617 11.389 12.317 11.4533 12.4315 11.5678C12.546 11.6823 12.6103 11.8376 12.6103 11.9995C12.6103 12.1614 12.546 12.3167 12.4315 12.4312Z" stroke="black" stroke-width="1.5" stroke-linecap="round" stroke-linejoin="round"/>
<path d="M16.7105 12.4312C16.596 12.5457 16.4407 12.61 16.2788 12.61C16.1169 12.61 15.9616 12.5457 15.8471 12.4312C15.7326 12.3167 15.6683 12.1614 15.6683 11.9995C15.6683 11.8376 15.7326 11.6823 15.8471 11.5678C15.9616 11.4533 16.1169 11.389 16.2788 11.389C16.4407 11.389 16.596 11.4533 16.7105 11.5678C16.825 11.6823 16.8893 11.8376 16.8893 11.9995C16.8893 12.1614 16.825 12.3167 16.7105 12.4312Z" stroke="black" stroke-width="1.5" stroke-linecap="round" stroke-linejoin="round"/>
<path d="M7.95449 12.5637C7.8804 12.5943 7.801 12.61 7.72083 12.61C7.55891 12.61 7.40463 12.5457 7.29014 12.4312C7.17565 12.3167 7.11133 12.1614 7.11133 11.9995C7.11133 11.8376 7.17565 11.6823 7.29014 11.5678C7.40463 11.4533 7.55991 11.389 7.72183 11.389C7.802 11.389 7.88137 11.4049 7.95542 11.4356C8.02946 11.4664 8.09673 11.5114 8.15337 11.5681C8.21001 11.6249 8.25493 11.6922 8.28555 11.7663C8.31617 11.8404 8.33189 11.9198 8.33183 12C8.33176 12.0801 8.31591 12.1595 8.28517 12.2336C8.25442 12.3076 8.2094 12.3749 8.15266 12.4315C8.09593 12.4882 8.02859 12.5331 7.95449 12.5637Z" stroke="black" stroke-width="1.5" stroke-linecap="round" stroke-linejoin="round"/>
</svg>
