<svg width="27" height="24" viewBox="0 0 27 24" fill="none" xmlns="http://www.w3.org/2000/svg">
<path d="M18.3337 23.3364C17.4496 23.3364 16.6018 22.9852 15.9766 22.3601C15.3515 21.735 15.0003 20.8871 15.0003 20.0031V10.0031C15.0003 4.78643 17.7503 1.34809 22.9287 0.0530949C23.1416 -0.00185776 23.3632 -0.014143 23.5809 0.0169468C23.7985 0.0480366 24.0079 0.121891 24.1969 0.234247C24.3859 0.346605 24.5508 0.495247 24.6821 0.671612C24.8134 0.847977 24.9085 1.04858 24.9619 1.26186C25.0153 1.47514 25.026 1.69688 24.9934 1.91432C24.9608 2.13175 24.8854 2.34058 24.7717 2.52877C24.658 2.71695 24.5082 2.88078 24.3309 3.01082C24.1536 3.14085 23.9523 3.23452 23.7387 3.28642C20.027 4.21476 18.3337 6.33143 18.3337 10.0031V11.6698H23.3337C24.1746 11.6695 24.9846 11.9871 25.6012 12.5589C26.2179 13.1307 26.5956 13.9145 26.6587 14.7531L26.667 15.0031V20.0031C26.667 20.8871 26.3158 21.735 25.6907 22.3601C25.0656 22.9852 24.2177 23.3364 23.3337 23.3364H18.3337ZM3.33366 23.3364C2.4496 23.3364 1.60176 22.9852 0.976637 22.3601C0.351517 21.735 0.000326157 20.8871 0.000326157 20.0031V10.0031C0.000326157 4.78643 2.75033 1.34809 7.92866 0.0530949C8.14155 -0.00185776 8.36321 -0.014143 8.58088 0.0169468C8.79854 0.0480366 9.0079 0.121891 9.1969 0.234247C9.38589 0.346605 9.55079 0.495247 9.68208 0.671612C9.81338 0.847977 9.90848 1.04858 9.96191 1.26186C10.0153 1.47514 10.026 1.69688 9.9934 1.91432C9.96075 2.13175 9.88541 2.34058 9.77171 2.52877C9.658 2.71695 9.50819 2.88078 9.33089 3.01082C9.15359 3.14085 8.95232 3.23452 8.73866 3.28642C5.02699 4.21476 3.33366 6.33143 3.33366 10.0031V11.6698H8.33366C9.17462 11.6695 9.9846 11.9871 10.6012 12.5589C11.2179 13.1307 11.5956 13.9145 11.6587 14.7531L11.667 15.0031V20.0031C11.667 20.8871 11.3158 21.735 10.6907 22.3601C10.0656 22.9852 9.21771 23.3364 8.33366 23.3364H3.33366Z" fill="#B4D4BC"/>
</svg>
