<svg width="18" height="24" viewBox="0 0 18 24" fill="none" xmlns="http://www.w3.org/2000/svg">
<path d="M16.8 6.24H14.4V0.92112C14.4 0.41232 13.9704 0 13.44 0C12.9096 0 12.48 0.41232 12.48 0.92112V6.24H4.8V0.92112C4.8 0.41232 4.3704 0 3.83952 0C3.30864 0 2.88 0.41232 2.88 0.92112V6.24H0.48C0.21456 6.24 0 6.65712 0 6.91152V9.216C0 11.9803 4.8 15.1901 4.8 19.6301V21.12H6.72V23.04H10.56V21.12H12.48V19.6301C12.48 15.1901 17.28 11.9798 17.28 9.216V6.91152C17.28 6.65712 17.0654 6.24 16.8 6.24ZM8.11536 14.1062C8.14656 14.0054 8.0832 13.92 7.97328 13.92H6.10848C5.99808 13.92 5.96688 13.8576 6.03696 13.7765C6.03696 13.7765 9.87936 8.90016 9.95424 8.80608C10.0109 8.7168 10.0733 8.748 10.0536 8.85072C10.0238 8.9808 9.20352 12.3077 9.20352 12.3077C9.16368 12.4056 9.22128 12.48 9.33024 12.48H11.196C11.3059 12.48 11.341 12.5539 11.2738 12.6374C11.2738 12.6374 7.4256 17.6304 7.35648 17.7139C7.28736 17.7974 7.22256 17.772 7.2576 17.6299L8.11536 14.1062Z" fill="#B3E718"/>
</svg>
