<svg width="34" height="35" viewBox="0 0 34 35" fill="none" xmlns="http://www.w3.org/2000/svg">
<path opacity="0.987" fill-rule="evenodd" clip-rule="evenodd" d="M14.8986 0.151875C16.7111 -0.050625 17.7836 -0.050625 19.7311 0.151875C23.1784 0.662113 26.3741 2.25559 28.8561 4.70188C27.1789 6.28721 25.5237 7.8957 23.8911 9.52688C20.7644 6.87688 17.2744 6.26521 13.4211 7.69188C10.5944 8.99188 8.62609 11.0985 7.51609 14.0119C5.70219 12.6615 3.91192 11.2796 2.14609 9.86688C2.02338 9.80228 1.88321 9.77863 1.74609 9.79938C4.55109 4.39104 8.93443 1.17437 14.8961 0.149375" fill="#F44336"/>
<path opacity="0.997" fill-rule="evenodd" clip-rule="evenodd" d="M1.74063 9.79935C1.8823 9.77769 2.01646 9.80019 2.14313 9.86685C3.90896 11.2796 5.69923 12.6614 7.51313 14.0119C7.22769 15.147 7.04776 16.3061 6.97563 17.4744C7.0373 18.6044 7.21646 19.7135 7.51313 20.8019L1.87563 25.2894C-0.57937 20.1594 -0.62437 14.996 1.74063 9.79935Z" fill="#FFC107"/>
<path opacity="0.999" fill-rule="evenodd" clip-rule="evenodd" d="M28.5882 30.7244C26.8328 29.1763 24.9951 27.7242 23.0832 26.3744C24.9998 25.021 26.1632 23.1644 26.5732 20.8044H17.1807V14.2819C22.5973 14.2369 28.0115 14.2827 33.4232 14.4194C34.4498 19.9944 33.264 25.021 29.8657 29.4994C29.4616 29.9289 29.0335 30.3378 28.5882 30.7244Z" fill="#448AFF"/>
<path opacity="0.993" fill-rule="evenodd" clip-rule="evenodd" d="M7.51348 20.8044C9.56348 25.8994 13.3218 28.2778 18.7885 27.9394C20.3231 27.7618 21.7943 27.2257 23.0835 26.3744C24.9968 27.7278 26.8318 29.1778 28.5885 30.7244C25.8051 33.2256 22.2563 34.7096 18.521 34.9344C17.6723 35.0023 16.8196 35.0023 15.971 34.9344C9.60764 34.1844 4.90931 30.9694 1.87598 25.2894L7.51348 20.8044Z" fill="#43A047"/>
</svg>
