<svg width="23" height="16" viewBox="0 0 23 16" fill="none" xmlns="http://www.w3.org/2000/svg">
<path d="M1 9.325C0.71667 9.325 0.479337 9.22933 0.288003 9.038C0.0966701 8.84667 0.000670115 8.609 3.44828e-06 8.325C-0.000663218 8.041 0.0953368 7.80367 0.288003 7.613C0.48067 7.42233 0.718003 7.32633 1 7.325H4.5C4.78334 7.325 5.021 7.421 5.213 7.613C5.405 7.805 5.50067 8.04233 5.5 8.325C5.49934 8.60767 5.40334 8.84533 5.212 9.038C5.02067 9.23067 4.78334 9.32633 4.5 9.325H1ZM4.125 15.125C3.54167 14.5417 3.25 13.8333 3.25 13H2C1.66667 13 1.4 12.875 1.2 12.625C1 12.375 0.94167 12.0917 1.025 11.775L1.25 10.825H4.375C5.075 10.825 5.66667 10.5833 6.15 10.1C6.63334 9.61667 6.875 9.025 6.875 8.325C6.875 8.10833 6.85 7.90833 6.8 7.725C6.75 7.54167 6.68334 7.35833 6.6 7.175H7.55C8.25 7.175 8.84167 6.93333 9.325 6.45C9.80834 5.96667 10.05 5.375 10.05 4.675C10.05 3.975 9.80834 3.38333 9.325 2.9C8.84167 2.41667 8.25 2.175 7.55 2.175H3.75L3.9 1.575C4 1.10833 4.22934 0.729334 4.588 0.438C4.94667 0.146667 5.36734 0.000666667 5.85 0H16C16.3333 0 16.6 0.125 16.8 0.375C17 0.625 17.0583 0.908333 16.975 1.225L16.325 4H18.25C18.5667 4 18.8667 4.071 19.15 4.213C19.4333 4.355 19.6667 4.55067 19.85 4.8L21.725 7.275C21.9083 7.50833 22.025 7.76267 22.075 8.038C22.125 8.31333 22.125 8.59233 22.075 8.875L21.4 12.2C21.35 12.4333 21.2333 12.625 21.05 12.775C20.8667 12.925 20.6583 13 20.425 13H19.25C19.25 13.8333 18.9583 14.5417 18.375 15.125C17.7917 15.7083 17.0833 16 16.25 16C15.4167 16 14.7083 15.7083 14.125 15.125C13.5417 14.5417 13.25 13.8333 13.25 13H9.25C9.25 13.8333 8.95834 14.5417 8.375 15.125C7.79167 15.7083 7.08334 16 6.25 16C5.41667 16 4.70834 15.7083 4.125 15.125ZM3 5.675C2.71667 5.675 2.47934 5.579 2.288 5.387C2.09667 5.195 2.00067 4.95767 2 4.675C1.99934 4.39233 2.09534 4.155 2.288 3.963C2.48067 3.771 2.718 3.675 3 3.675H7.5C7.78334 3.675 8.021 3.771 8.213 3.963C8.405 4.155 8.50067 4.39233 8.5 4.675C8.49934 4.95767 8.40334 5.19533 8.212 5.388C8.02067 5.58067 7.78334 5.67633 7.5 5.675H3ZM6.25 14C6.53334 14 6.771 13.904 6.963 13.712C7.155 13.52 7.25067 13.2827 7.25 13C7.24934 12.7173 7.15334 12.48 6.962 12.288C6.77067 12.096 6.53334 12 6.25 12C5.96667 12 5.72934 12.096 5.538 12.288C5.34667 12.48 5.25067 12.7173 5.25 13C5.24934 13.2827 5.34534 13.5203 5.538 13.713C5.73067 13.9057 5.968 14.0013 6.25 14ZM16.25 14C16.5333 14 16.771 13.904 16.963 13.712C17.155 13.52 17.2507 13.2827 17.25 13C17.2493 12.7173 17.1533 12.48 16.962 12.288C16.7707 12.096 16.5333 12 16.25 12C15.9667 12 15.7293 12.096 15.538 12.288C15.3467 12.48 15.2507 12.7173 15.25 13C15.2493 13.2827 15.3453 13.5203 15.538 13.713C15.7307 13.9057 15.968 14.0013 16.25 14ZM15.175 9H20L20.1 8.475L18.25 6H15.875L15.175 9Z" fill="#1C4B41"/>
</svg>
