<svg width="20" height="16" viewBox="0 0 20 16" fill="none" xmlns="http://www.w3.org/2000/svg">
<path d="M2 16C1.45 16 0.979333 15.8043 0.588 15.413C0.196667 15.0217 0.000666667 14.5507 0 14V2C0 1.45 0.196 0.979333 0.588 0.588C0.98 0.196666 1.45067 0.000666667 2 0H18C18.55 0 19.021 0.196 19.413 0.588C19.805 0.98 20.0007 1.45067 20 2V14C20 14.55 19.8043 15.021 19.413 15.413C19.0217 15.805 18.5507 16.0007 18 16H2ZM8 10H5C4.71667 10 4.47933 10.096 4.288 10.288C4.09667 10.48 4.00067 10.7173 4 11C3.99933 11.2827 4.09533 11.5203 4.288 11.713C4.48067 11.9057 4.718 12.0013 5 12H6C6 12.2833 6.096 12.521 6.288 12.713C6.48 12.905 6.71733 13.0007 7 13C7.28267 12.9993 7.52033 12.9033 7.713 12.712C7.90567 12.5207 8.00133 12.2833 8 12H9C9.28333 12 9.521 11.904 9.713 11.712C9.905 11.52 10.0007 11.2827 10 11V8C10 7.71667 9.904 7.47933 9.712 7.288C9.52 7.09667 9.28267 7.00067 9 7H6V6H9C9.28333 6 9.521 5.904 9.713 5.712C9.905 5.52 10.0007 5.28267 10 5C9.99933 4.71733 9.90333 4.48 9.712 4.288C9.52067 4.096 9.28333 4 9 4H8C8 3.71667 7.904 3.47933 7.712 3.288C7.52 3.09667 7.28267 3.00067 7 3C6.73333 3 6.546 3.121 6.438 3.363C6.33 3.605 6.184 3.81733 6 4H5C4.71667 4 4.47933 4.096 4.288 4.288C4.09667 4.48 4.00067 4.71733 4 5V8C4 8.28333 4.096 8.521 4.288 8.713C4.48 8.905 4.71733 9.00067 5 9H8V10ZM14.175 12.075L15.575 10.675C15.6583 10.5917 15.6793 10.5 15.638 10.4C15.5967 10.3 15.5173 10.25 15.4 10.25H12.6C12.4833 10.25 12.4043 10.3 12.363 10.4C12.3217 10.5 12.3423 10.5917 12.425 10.675L13.825 12.075C13.875 12.125 13.9333 12.15 14 12.15C14.0667 12.15 14.125 12.125 14.175 12.075ZM12.6 6H15.4C15.5167 6 15.596 5.95 15.638 5.85C15.68 5.75 15.659 5.65833 15.575 5.575L14.175 4.175C14.125 4.125 14.0667 4.1 14 4.1C13.9333 4.1 13.875 4.125 13.825 4.175L12.425 5.575C12.3417 5.65833 12.321 5.75 12.363 5.85C12.405 5.95 12.484 6 12.6 6Z" fill="#1C4B41"/>
</svg>
