<svg width="24" height="24" viewBox="0 0 24 24" fill="none" xmlns="http://www.w3.org/2000/svg">
<path fill-rule="evenodd" clip-rule="evenodd" d="M9.166 19.9861C9.11115 19.9954 9.05563 20.0001 9 20.0001H5C4.73478 20.0001 4.48043 19.8947 4.29289 19.7072C4.10536 19.5197 4 19.2653 4 19.0001C4 18.7349 4.10536 18.4805 4.29289 18.293C4.48043 18.1055 4.73478 18.0001 5 18.0001H9C9.05667 18.0001 9.112 18.0048 9.166 18.0141C9.37092 17.4258 9.75385 16.9158 10.2617 16.555C10.7695 16.1941 11.377 16.0002 12 16.0002C12.623 16.0002 13.2305 16.1941 13.7383 16.555C14.2462 16.9158 14.6291 17.4258 14.834 18.0141C14.8888 18.0048 14.9444 18.0001 15 18.0001H19C19.2652 18.0001 19.5196 18.1055 19.7071 18.293C19.8946 18.4805 20 18.7349 20 19.0001C20 19.2653 19.8946 19.5197 19.7071 19.7072C19.5196 19.8947 19.2652 20.0001 19 20.0001H15C14.944 20.0001 14.8887 19.9954 14.834 19.9861C14.6291 20.5744 14.2462 21.0844 13.7383 21.4452C13.2305 21.8061 12.623 22 12 22C11.377 22 10.7695 21.8061 10.2617 21.4452C9.75385 21.0844 9.37092 20.5744 9.166 19.9861ZM11 19.0001C11 18.7349 11.1054 18.4805 11.2929 18.293C11.4804 18.1055 11.7348 18.0001 12 18.0001C12.2652 18.0001 12.5196 18.1055 12.7071 18.293C12.8946 18.4805 13 18.7349 13 19.0001C13 19.2653 12.8946 19.5197 12.7071 19.7072C12.5196 19.8947 12.2652 20.0001 12 20.0001C11.7348 20.0001 11.4804 19.8947 11.2929 19.7072C11.1054 19.5197 11 19.2653 11 19.0001Z" fill="#1C4B41"/>
<path d="M11.4998 2.13104C11.6518 2.04328 11.8243 1.99707 11.9998 1.99707C12.1753 1.99707 12.3478 2.04328 12.4998 2.13104L17.1008 4.78804C17.0408 4.80671 16.9811 4.83171 16.9218 4.86304L12.0798 7.47504L6.9458 4.76004L11.4998 2.13104ZM5.9668 6.50504V11.715C5.9668 11.8906 6.01301 12.063 6.10078 12.215C6.18855 12.367 6.31478 12.4933 6.4668 12.581L11.0368 15.219V9.18604L5.9668 6.50504ZM13.0368 15.176L17.5328 12.581C17.6848 12.4933 17.811 12.367 17.8988 12.215C17.9866 12.063 18.0328 11.8906 18.0328 11.715V6.51504C17.9828 6.55617 17.9288 6.59234 17.8718 6.62304L13.0368 9.23104V15.176Z" fill="#1C4B41"/>
</svg>
