<svg width="20" height="20" viewBox="0 0 20 20" fill="none" xmlns="http://www.w3.org/2000/svg">
<path d="M6.0415 6.66667C6.0415 6.3904 6.15125 6.12545 6.3466 5.9301C6.54195 5.73475 6.8069 5.625 7.08317 5.625C7.35944 5.625 7.62439 5.73475 7.81974 5.9301C8.01509 6.12545 8.12484 6.3904 8.12484 6.66667C8.12484 6.94293 8.01509 7.20789 7.81974 7.40324C7.62439 7.59859 7.35944 7.70833 7.08317 7.70833C6.8069 7.70833 6.54195 7.59859 6.3466 7.40324C6.15125 7.20789 6.0415 6.94293 6.0415 6.66667Z" fill="#636261"/>
<path d="M7.80583 1.875H12.1942C13.1042 1.875 13.8258 1.875 14.4067 1.9225C15.0017 1.97083 15.5042 2.0725 15.9642 2.30583C16.7089 2.6857 17.3142 3.2916 17.6933 4.03667C17.9275 4.495 18.0292 4.99833 18.0775 5.59333C18.125 6.17417 18.125 6.89583 18.125 7.80583V12.1942C18.125 13.1042 18.125 13.8258 18.0775 14.4067C18.0292 15.0017 17.9275 15.5042 17.6942 15.9642C17.3145 16.7087 16.7089 17.314 15.9642 17.6933C15.5042 17.9275 15.0017 18.0292 14.4067 18.0775C13.8258 18.125 13.1042 18.125 12.1942 18.125H7.80583C6.89583 18.125 6.17417 18.125 5.59333 18.0775C4.99833 18.0292 4.49583 17.9275 4.03667 17.6942C3.29178 17.3147 2.68618 16.7091 2.30667 15.9642C2.0725 15.5042 1.97083 15.0017 1.92333 14.4067C1.875 13.8258 1.875 13.1042 1.875 12.1942V7.80583C1.875 6.89583 1.875 6.17417 1.9225 5.59333C1.97083 4.99833 2.0725 4.49583 2.30583 4.03667C2.68556 3.29166 3.29147 2.68604 4.03667 2.30667C4.495 2.0725 4.99833 1.97083 5.59333 1.9225C6.17417 1.875 6.89583 1.875 7.80583 1.875ZM3.125 11.4608V12.1667C3.125 13.1108 3.125 13.7808 3.16833 14.305C3.21 14.8217 3.29083 15.1425 3.42 15.3967C3.67963 15.9061 4.09386 16.3204 4.60333 16.58C4.8575 16.7092 5.17833 16.7892 5.695 16.8317C6.01917 16.8583 6.39917 16.8683 6.865 16.8725C6.82667 15.7125 7.00417 14.6142 7.35917 13.6058C6.42583 12.2675 4.875 11.405 3.125 11.4608ZM16.8758 8.89083C11.99 8.48 7.93667 12.1192 8.11667 16.875H12.1667C13.1108 16.875 13.7808 16.875 14.305 16.8317C14.8217 16.79 15.1425 16.7092 15.3967 16.58C15.9061 16.3204 16.3204 15.9061 16.58 15.3967C16.7092 15.1425 16.7892 14.8217 16.8317 14.305C16.875 13.78 16.875 13.11 16.875 12.1667L16.8758 8.89083ZM4.79167 6.66667C4.79167 7.27445 5.03311 7.85735 5.46288 8.28712C5.89265 8.71689 6.47555 8.95833 7.08333 8.95833C7.69112 8.95833 8.27402 8.71689 8.70379 8.28712C9.13356 7.85735 9.375 7.27445 9.375 6.66667C9.375 6.05888 9.13356 5.47598 8.70379 5.04621C8.27402 4.61644 7.69112 4.375 7.08333 4.375C6.47555 4.375 5.89265 4.61644 5.46288 5.04621C5.03311 5.47598 4.79167 6.05888 4.79167 6.66667ZM6.04167 6.66667C6.04167 6.3904 6.15141 6.12545 6.34676 5.9301C6.54211 5.73475 6.80707 5.625 7.08333 5.625C7.3596 5.625 7.62455 5.73475 7.8199 5.9301C8.01525 6.12545 8.125 6.3904 8.125 6.66667C8.125 6.94293 8.01525 7.20789 7.8199 7.40324C7.62455 7.59859 7.3596 7.70833 7.08333 7.70833C6.80707 7.70833 6.54211 7.59859 6.34676 7.40324C6.15141 7.20789 6.04167 6.94293 6.04167 6.66667Z" fill="#636261"/>
</svg>
