<svg width="12" height="12" viewBox="0 0 12 12" fill="none" xmlns="http://www.w3.org/2000/svg">
<path d="M5.625 0.5C6.98476 0.500091 8.28912 1.03986 9.25098 2.00098V2.00195C9.7266 2.4778 10.1042 3.04236 10.3613 3.66406C10.6183 4.28545 10.7504 4.95159 10.75 5.62402C10.7509 6.29705 10.6186 6.96401 10.3613 7.58594C10.1041 8.20779 9.72695 8.77329 9.25098 9.24902L9.25 9.24805C8.774 9.72406 8.20984 10.1028 7.58789 10.3604C6.96571 10.618 6.29841 10.7493 5.625 10.749C4.95101 10.7504 4.2848 10.617 3.66309 10.3594L1.86719 10.626L1.86621 10.624C1.69263 10.651 1.51525 10.6379 1.34863 10.582C1.17927 10.5251 1.02552 10.4273 0.902344 10.2979C0.779299 10.1685 0.690033 10.0107 0.641602 9.83887C0.596573 9.67904 0.590949 9.51177 0.620117 9.34863H0.618164L0.869141 7.51953C0.623487 6.91746 0.49627 6.27329 0.5 5.62207C0.49961 4.95026 0.631893 4.28489 0.888672 3.66406C1.1459 3.04219 1.52304 2.47672 1.99902 2.00098C2.47511 1.52485 3.04098 1.14723 3.66309 0.889648C4.28511 0.632158 4.95179 0.499778 5.625 0.5Z" stroke="#959594" stroke-linecap="round" stroke-linejoin="round"/>
<path d="M6 5.85022C5.94028 5.90994 5.85929 5.94349 5.77484 5.94349C5.69039 5.94349 5.60939 5.90994 5.54968 5.85022C5.48996 5.79051 5.45641 5.70952 5.45641 5.62506C5.45641 5.54061 5.48996 5.45962 5.54968 5.3999C5.60939 5.34019 5.69039 5.30664 5.77484 5.30664C5.85929 5.30664 5.94028 5.34019 6 5.3999C6.05971 5.45962 6.09326 5.54061 6.09326 5.62506C6.09326 5.70952 6.05971 5.79051 6 5.85022Z" fill="#959594"/>
<path d="M8.23183 5.85022C8.17212 5.90994 8.09112 5.94349 8.00667 5.94349C7.92222 5.94349 7.84123 5.90994 7.78151 5.85022C7.7218 5.79051 7.68825 5.70952 7.68825 5.62506C7.68825 5.54061 7.7218 5.45962 7.78151 5.3999C7.84123 5.34019 7.92222 5.30664 8.00667 5.30664C8.09112 5.30664 8.17212 5.34019 8.23183 5.3999C8.29155 5.45962 8.3251 5.54061 8.3251 5.62506C8.3251 5.70952 8.29155 5.79051 8.23183 5.85022Z" fill="#959594"/>
<path d="M3.66488 5.91935C3.62623 5.93532 3.58482 5.94352 3.543 5.94349C3.45855 5.94349 3.37808 5.90994 3.31836 5.85022C3.25865 5.79051 3.2251 5.70952 3.2251 5.62506C3.2251 5.54061 3.25865 5.45962 3.31836 5.3999C3.37808 5.34019 3.45907 5.30664 3.54352 5.30664C3.58534 5.30667 3.62674 5.31495 3.66536 5.33098C3.70398 5.34701 3.73906 5.3705 3.76861 5.40009C3.79815 5.42968 3.82158 5.4648 3.83755 5.50345C3.85352 5.5421 3.86172 5.58351 3.86168 5.62533C3.86165 5.66714 3.85338 5.70854 3.83735 5.74716C3.82131 5.78578 3.79783 5.82086 3.76824 5.85041C3.73864 5.87995 3.70352 5.90338 3.66488 5.91935Z" fill="#959594"/>
<path d="M6 5.85022C5.94028 5.90994 5.85929 5.94349 5.77484 5.94349C5.69039 5.94349 5.60939 5.90994 5.54968 5.85022C5.48996 5.79051 5.45641 5.70952 5.45641 5.62506C5.45641 5.54061 5.48996 5.45962 5.54968 5.3999C5.60939 5.34019 5.69039 5.30664 5.77484 5.30664C5.85929 5.30664 5.94028 5.34019 6 5.3999C6.05971 5.45962 6.09326 5.54061 6.09326 5.62506C6.09326 5.70952 6.05971 5.79051 6 5.85022Z" stroke="#959594" stroke-linecap="round" stroke-linejoin="round"/>
<path d="M8.23183 5.85022C8.17212 5.90994 8.09112 5.94349 8.00667 5.94349C7.92222 5.94349 7.84123 5.90994 7.78151 5.85022C7.7218 5.79051 7.68825 5.70952 7.68825 5.62506C7.68825 5.54061 7.7218 5.45962 7.78151 5.3999C7.84123 5.34019 7.92222 5.30664 8.00667 5.30664C8.09112 5.30664 8.17212 5.34019 8.23183 5.3999C8.29155 5.45962 8.3251 5.54061 8.3251 5.62506C8.3251 5.70952 8.29155 5.79051 8.23183 5.85022Z" stroke="#959594" stroke-linecap="round" stroke-linejoin="round"/>
<path d="M3.66488 5.91935C3.62623 5.93532 3.58482 5.94352 3.543 5.94349C3.45855 5.94349 3.37808 5.90994 3.31836 5.85022C3.25865 5.79051 3.2251 5.70952 3.2251 5.62506C3.2251 5.54061 3.25865 5.45962 3.31836 5.3999C3.37808 5.34019 3.45907 5.30664 3.54352 5.30664C3.58534 5.30667 3.62674 5.31495 3.66536 5.33098C3.70398 5.34701 3.73906 5.3705 3.76861 5.40009C3.79815 5.42968 3.82158 5.4648 3.83755 5.50345C3.85352 5.5421 3.86172 5.58351 3.86168 5.62533C3.86165 5.66714 3.85338 5.70854 3.83735 5.74716C3.82131 5.78578 3.79783 5.82086 3.76824 5.85041C3.73864 5.87995 3.70352 5.90338 3.66488 5.91935Z" stroke="#959594" stroke-linecap="round" stroke-linejoin="round"/>
</svg>
