<svg width="36" height="26" viewBox="0 0 36 26" fill="none" xmlns="http://www.w3.org/2000/svg">
<path d="M1 4.33333C1 3.44928 1.35119 2.60143 1.97631 1.97631C2.60143 1.35119 3.44928 1 4.33333 1H31C31.8841 1 32.7319 1.35119 33.357 1.97631C33.9821 2.60143 34.3333 3.44928 34.3333 4.33333V21C34.3333 21.8841 33.9821 22.7319 33.357 23.357C32.7319 23.9821 31.8841 24.3333 31 24.3333H4.33333C3.44928 24.3333 2.60143 23.9821 1.97631 23.357C1.35119 22.7319 1 21.8841 1 21V4.33333Z" stroke="black" stroke-width="2" stroke-linecap="round" stroke-linejoin="round"/>
<path d="M17.667 17.6666C20.4284 17.6666 22.667 15.428 22.667 12.6666C22.667 9.9052 20.4284 7.66663 17.667 7.66663C14.9056 7.66663 12.667 9.9052 12.667 12.6666C12.667 15.428 14.9056 17.6666 17.667 17.6666Z" stroke="black" stroke-width="2" stroke-linecap="round" stroke-linejoin="round"/>
<path d="M1 7.66667C2.76811 7.66667 4.4638 6.96429 5.71405 5.71405C6.96429 4.4638 7.66667 2.76811 7.66667 1M27.6667 24.3333C27.6667 22.5652 28.369 20.8695 29.6193 19.6193C30.8695 18.369 32.5652 17.6667 34.3333 17.6667" stroke="black" stroke-width="2" stroke-linecap="round" stroke-linejoin="round"/>
</svg>
