<svg width="30" height="34" viewBox="0 0 30 34" fill="none" xmlns="http://www.w3.org/2000/svg">
  <path d="M11.9102 2.08313C12.1593 1.46765 12.5864 0.940558 13.137 0.569417C13.6875 0.198277 14.3363 0 15.0002 0C15.6642 0 16.313 0.198277 16.8635 0.569417C17.4141 0.940558 17.8412 1.46765 18.0903 2.08313C20.5553 2.76018 22.7297 4.22811 24.2792 6.26124C25.8288 8.29437 26.6676 10.7802 26.6669 13.3365V21.1648L29.7203 25.7448C29.8877 25.9958 29.9839 26.2876 29.9985 26.5889C30.0132 26.8903 29.9457 27.19 29.8034 27.4561C29.661 27.7221 29.4491 27.9445 29.1903 28.0996C28.9314 28.2546 28.6353 28.3365 28.3336 28.3365H20.7753C20.5746 29.725 19.8804 30.9947 18.8198 31.913C17.7592 32.8314 16.4032 33.3368 15.0002 33.3368C13.5973 33.3368 12.2413 32.8314 11.1807 31.913C10.1201 30.9947 9.42592 29.725 9.22525 28.3365H1.66692C1.36518 28.3365 1.06909 28.2546 0.810235 28.0996C0.551381 27.9445 0.339476 27.7221 0.197126 27.4561C0.0547767 27.19 -0.0126763 26.8903 0.00196308 26.5889C0.0166024 26.2876 0.112785 25.9958 0.28025 25.7448L3.33358 21.1648V13.3365C3.33358 7.96313 6.96692 3.43646 11.9102 2.08313ZM12.6436 28.3365C12.8157 28.8242 13.1349 29.2466 13.5571 29.5453C13.9794 29.8441 14.4839 30.0045 15.0011 30.0045C15.5183 30.0045 16.0228 29.8441 16.445 29.5453C16.8673 29.2466 17.1865 28.8242 17.3586 28.3365H12.6436ZM15.0002 5.00313C12.7901 5.00313 10.6705 5.8811 9.10769 7.44391C7.54489 9.00671 6.66692 11.1263 6.66692 13.3365V21.6698C6.66699 21.999 6.56956 22.3209 6.38692 22.5948L4.78192 25.0031H25.2169L23.6119 22.5948C23.4299 22.3207 23.333 21.9988 23.3336 21.6698V13.3365C23.3336 11.1263 22.4556 9.00671 20.8928 7.44391C19.33 5.8811 17.2104 5.00313 15.0002 5.00313Z" fill="#112D27" />
</svg>
