<svg width="24" height="24" viewBox="0 0 24 24" fill="none" xmlns="http://www.w3.org/2000/svg">
<path d="M14.1022 2.66388C14.7302 2.24788 15.7942 1.95088 16.5972 2.75388L21.2442 7.40188C22.0502 8.20588 21.7522 9.26988 21.3352 9.89688C21.1094 10.2369 20.8155 10.5263 20.4722 10.7469C20.1382 10.9599 19.7162 11.1209 19.2612 11.0969C19.041 11.0813 18.8215 11.0576 18.6032 11.0259L18.5352 11.0159C18.3005 10.9823 18.0647 10.9579 17.8282 10.9429C17.3242 10.9179 17.1302 11.0029 17.0682 11.0629L14.5782 13.5539C14.4982 13.6339 14.3982 13.8119 14.3222 14.1539C14.2492 14.4839 14.2172 14.8899 14.2092 15.3399C14.2022 15.7719 14.2172 16.2139 14.2332 16.6399L14.2342 16.6869C14.2492 17.1099 14.2642 17.5419 14.2432 17.8809C14.1782 18.9119 13.3752 19.6709 12.5852 20.0219C11.7952 20.3719 10.6682 20.4589 9.88515 19.6749L7.63515 17.4249L3.53015 21.5299C3.46149 21.6036 3.37869 21.6627 3.28669 21.7037C3.19469 21.7447 3.09538 21.7667 2.99468 21.7685C2.89397 21.7703 2.79394 21.7517 2.70056 21.714C2.60717 21.6763 2.52233 21.6201 2.45112 21.5489C2.3799 21.4777 2.32375 21.3929 2.28603 21.2995C2.24831 21.2061 2.22979 21.1061 2.23156 21.0054C2.23334 20.9047 2.25538 20.8053 2.29637 20.7133C2.33736 20.6213 2.39647 20.5385 2.47015 20.4699L6.57415 16.3649L4.32415 14.1149C3.54115 13.3309 3.62715 12.2049 3.97815 11.4149C4.32815 10.6249 5.08815 9.82188 6.11815 9.75688C6.45815 9.73588 6.89015 9.75088 7.31315 9.76588L7.36015 9.76688C7.78615 9.78188 8.22815 9.79788 8.66015 9.79088C9.11015 9.78288 9.51615 9.75088 9.84615 9.67788C10.1882 9.60188 10.3662 9.50088 10.4462 9.42088L12.9362 6.93088C12.9972 6.86988 13.0822 6.67488 13.0562 6.17088C13.0411 5.93435 13.0168 5.6985 12.9832 5.46388L12.9742 5.39588C12.9424 5.1775 12.9187 4.95801 12.9032 4.73788C12.8782 4.28288 13.0392 3.86088 13.2512 3.52688C13.4672 3.18688 13.7662 2.88688 14.1022 2.66388Z" fill="#B3E718"/>
</svg>
