<svg width="24" height="24" viewBox="0 0 24 24" fill="none" xmlns="http://www.w3.org/2000/svg">
<path d="M19.2756 9.17498L15.7506 5.64998L13.6256 7.74998L11.5006 5.64998L14.3256 2.79998C14.5256 2.59998 14.7506 2.45431 15.0006 2.36298C15.2506 2.27164 15.5006 2.22564 15.7506 2.22498C16.0173 2.22498 16.2716 2.27098 16.5136 2.36298C16.7556 2.45498 16.9679 2.60064 17.1506 2.79998L19.2756 4.92498C19.5756 5.20831 19.7966 5.53764 19.9386 5.91298C20.0806 6.28831 20.1513 6.66731 20.1506 7.04998C20.1499 7.43264 20.0793 7.80764 19.9386 8.17498C19.7979 8.54231 19.5769 8.87564 19.2756 9.17498ZM5.50059 13.775C5.20059 13.475 5.05059 13.121 5.05059 12.713C5.05059 12.305 5.20059 11.9506 5.50059 11.65L7.95059 9.17498L10.0756 11.3L7.60059 13.775C7.31725 14.075 6.97159 14.225 6.56359 14.225C6.15559 14.225 5.80125 14.075 5.50059 13.775ZM4.42559 21.2C4.24225 21 4.10059 20.7793 4.00059 20.538C3.90059 20.2966 3.85059 20.0423 3.85059 19.775C3.85059 19.5076 3.89659 19.2536 3.98859 19.013C4.08059 18.7723 4.22625 18.5513 4.42559 18.35L11.5006 11.3L8.32559 8.09998C8.02559 7.81664 7.87559 7.47098 7.87559 7.06298C7.87559 6.65498 8.02559 6.30064 8.32559 5.99998C8.60892 5.69998 8.95892 5.54998 9.37559 5.54998C9.79225 5.54998 10.1506 5.69998 10.4506 5.99998L13.6256 9.17498L15.0506 7.74998L17.8506 10.6C18.0506 10.8 18.1506 11.0333 18.1506 11.3C18.1506 11.5666 18.0506 11.8 17.8506 12C17.6506 12.2 17.4173 12.3 17.1506 12.3C16.8839 12.3 16.6506 12.2 16.4506 12L7.25059 21.2C7.05059 21.4 6.82959 21.546 6.58759 21.638C6.34559 21.73 6.09992 21.7756 5.85059 21.775C5.60125 21.7743 5.35125 21.7243 5.10059 21.625C4.84992 21.5256 4.62492 21.384 4.42559 21.2Z" fill="#1C4B41"/>
</svg>
