<svg width="132" height="133" viewBox="0 0 132 133" fill="none" xmlns="http://www.w3.org/2000/svg">
<g clip-path="url(#clip0_1292_4022)">
<path d="M57.2306 59.3201C59.0306 61.0401 60.2306 61.4301 62.1106 63.0701C63.6806 64.4401 65.3505 65.9001 65.9706 67.8901C66.5906 69.8801 65.5806 72.5301 63.5106 72.8201C61.9806 73.0401 60.6006 71.9601 59.4406 70.9401L44.0406 57.5101C42.9905 56.7031 42.0902 55.7182 41.3806 54.6001C41.0276 54.038 40.8224 53.3959 40.784 52.7333C40.7455 52.0708 40.875 51.4092 41.1606 50.8101C41.7571 49.9236 42.5976 49.2289 43.5806 48.8101C47.6406 46.6901 52.1605 52.3201 54.7805 54.9601C56.1105 56.3901 55.8506 58.0201 57.2306 59.3201Z" fill="#B3E718"/>
<path d="M90.1597 81.8799C93.1597 84.9799 101.23 92.4499 104.27 95.5399C105.455 96.6002 106.423 97.8805 107.12 99.3099C107.779 101.173 107.779 103.207 107.12 105.07C106.458 107.365 105.072 109.385 103.17 110.83C102.217 111.537 101.118 112.023 99.9545 112.253C98.7905 112.483 97.5899 112.451 96.4397 112.16C94.6314 111.515 92.9814 110.493 91.5997 109.16C86.2997 104.633 81.1597 99.9199 76.1797 95.0199C79.8997 91.3899 86.4497 85.4899 90.1597 81.8799ZM98.5597 103.51C96.6197 100.777 94.5464 98.1465 92.3397 95.6199C91.3397 94.4299 90.1197 92.6199 88.7997 91.7899C88.3382 91.5644 87.8406 91.4222 87.3297 91.3699C86.7639 91.3438 86.2181 91.1526 85.7597 90.8199C89.5797 95.4899 93.4997 100.23 98.5597 103.51Z" fill="#B3E718"/>
<path d="M28.2002 72.8501C28.2002 72.8501 39.7602 68.9201 56.4102 78.5501C56.4102 78.5501 36.3002 92.7401 37.6102 102.73L28.2002 96.6001V72.8501Z" fill="#B3E718"/>
<path d="M120.12 96.07V72.07C114.69 70.3 96.2998 80.14 96.2998 80.14C96.2998 80.14 113.81 96.08 112.94 101.34L120.12 96.07Z" fill="#B3E718"/>
<path d="M74.0497 98.53L90.6898 114.29L74.0497 120.07L59.5098 112.39C59.5098 112.39 73.5197 100.1 74.0497 98.53Z" fill="#B3E718"/>
<path d="M48.4006 93.8299L76.4006 66.16C76.9156 65.7115 77.3488 65.1768 77.6806 64.5799C78.3506 63.1999 77.8906 61.58 77.6306 60.04C77.211 57.2926 77.5236 54.4832 78.5366 51.8952C79.5497 49.3073 81.2274 47.0323 83.4006 45.2999C88.7806 41.1199 99.6606 40.18 103.081 47.42C100.591 47.4149 98.1264 47.9079 95.8306 48.8699C94.6843 49.3573 93.6545 50.0828 92.8098 50.9982C91.965 51.9137 91.3245 52.9982 90.9306 54.1799C90.5687 55.3714 90.5999 56.6477 91.0195 57.8201C91.4391 58.9925 92.2249 59.9987 93.2606 60.6899C94.8329 61.4586 96.6139 61.6905 98.3306 61.35C101.952 60.882 105.413 59.5664 108.431 57.5099C108.897 59.0021 109.041 60.5766 108.851 62.1285C108.661 63.6804 108.143 65.1741 107.331 66.5099C105.681 69.1693 103.378 71.3622 100.641 72.8799C98.2867 74.4264 95.5042 75.1894 92.6906 75.0599C91.9269 74.9105 91.1472 74.8601 90.3706 74.91C89.1492 75.2326 88.0609 75.9325 87.2606 76.91L59.2606 104.38C56.5406 107.05 53.3206 109.92 49.5106 109.67C47.7959 109.502 46.2017 108.713 45.0284 107.451C43.8551 106.19 43.1837 104.542 43.1406 102.82C43.1606 99.2299 45.8606 96.3299 48.4006 93.8299ZM53.4606 104.62C54.1627 104.62 54.8491 104.412 55.4329 104.022C56.0167 103.632 56.4717 103.077 56.7404 102.428C57.0091 101.78 57.0794 101.066 56.9424 100.377C56.8054 99.6887 56.4673 99.0562 55.9709 98.5597C55.4744 98.0633 54.8418 97.7252 54.1532 97.5882C53.4646 97.4512 52.7508 97.5215 52.1021 97.7901C51.4534 98.0588 50.899 98.5138 50.5089 99.0976C50.1188 99.6814 49.9106 100.368 49.9106 101.07C49.9093 101.536 50.0002 101.999 50.1782 102.43C50.3561 102.861 50.6175 103.253 50.9474 103.583C51.2774 103.913 51.6692 104.174 52.1005 104.352C52.5318 104.53 52.994 104.621 53.4606 104.62Z" fill="#1C4B41"/>
<path d="M71.2398 79.26H69.4898L53.2998 94.85C53.2998 94.85 55.2998 93.62 55.9998 94.85C56.6998 96.08 71.2398 79.26 71.2398 79.26Z" fill="#B3E718"/>
<path d="M17.8105 47.1999C18.5105 43.8699 22.7205 42.0598 22.7205 42.0598C22.7205 42.0598 67.0405 15.4899 71.2405 13.2099C75.4405 10.9299 79.8305 14.0899 79.8305 14.0899C79.8305 14.0899 122.751 40.3599 127.131 42.0899C128.397 42.6032 129.494 43.4607 130.298 44.5652C131.102 45.6698 131.581 46.9773 131.681 48.3399V97.5598C131.681 101.29 127.681 104.65 127.681 104.65C127.681 104.65 86.6805 129.04 80.6805 131.65C76.92 133.179 72.711 133.179 68.9505 131.65L20.7905 103.51C18.1105 101.95 17.7905 97.5099 17.7905 97.5099C17.7905 97.5099 17.1105 50.5299 17.8105 47.1999ZM29.2005 96.5999L37.6105 102.73C37.6105 102.73 39.4805 121.12 59.5105 112.42L74.0505 120.07L90.6905 114.29C90.6905 114.29 109.261 124.45 112.941 101.29L120.121 96.0299V51.0299C120.121 51.0299 77.7305 21.7798 75.1205 22.2998C72.5105 22.8198 31.6705 47.8799 29.2205 51.2099C29.2005 51.2299 27.9905 95.7199 29.2005 96.5999Z" fill="#1C4B41"/>
<path d="M11.0703 8.16992C11.0703 8.16992 9.60024 14.3799 8.15024 15.8299C6.70024 17.2799 0.490234 18.7499 0.490234 18.7499C0.490234 18.7499 6.70024 20.2199 8.15024 21.6699C9.60024 23.1199 11.0703 29.3299 11.0703 29.3299C11.0703 29.3299 12.5502 23.1199 13.9902 21.6699C15.4302 20.2199 21.6502 18.7499 21.6502 18.7499C21.6502 18.7499 15.4402 17.2699 13.9902 15.8299C12.5402 14.3899 11.0703 8.16992 11.0703 8.16992Z" fill="#B3E718"/>
<path d="M28.1997 18.75C28.1997 18.75 27.2597 22.75 26.3297 23.65C25.3997 24.55 21.4297 25.52 21.4297 25.52C21.4297 25.52 25.4297 26.46 26.3297 27.39C27.2297 28.32 28.1997 32.28 28.1997 32.28C28.1997 32.28 29.1397 28.28 30.0697 27.39C30.9997 26.5 34.9697 25.52 34.9697 25.52C34.9697 25.52 30.9697 24.52 30.0697 23.65C29.1697 22.78 28.1997 18.75 28.1997 18.75Z" fill="#B3E718"/>
</g>
<defs>
<clipPath id="clip0_1292_4022">
<rect width="132" height="133" fill="white"/>
</clipPath>
</defs>
</svg>
